<svg width="812" height="153" viewBox="0 0 812 153" fill="none" xmlns="http://www.w3.org/2000/svg">
<path d="M24.4033 21H35.3896V146H24.4033V66.166L11.2197 88.1387V146H0.355469V21H11.2197V72.2695L24.4033 50.1748V21ZM65.541 21H76.4053V146H65.541V75.9316H56.2637V146H45.2773V21H56.2637V64.9453H65.541V21ZM100.575 132.572L100.453 132.694C100.372 133.671 100.209 134.647 99.9648 135.624H109.608V31.498H103.139L100.575 132.572ZM119.984 21V135.624H127.919V152.348H117.421V146.122H91.1758V152.348H80.6777V135.624H87.5137C88.8971 135.299 89.7516 133.956 90.0771 131.596L92.7627 27.958C92.9255 26.0049 93.6986 24.3773 95.082 23.0752C96.5469 21.6917 98.2559 21 100.209 21H119.984ZM156.972 21H167.958V146H156.972V66.166L143.788 88.1387V146H132.924V21H143.788V72.2695L156.972 50.1748V21ZM177.846 98.2705V87.5283H232.045V98.2705H177.846ZM241.811 21H264.882V31.8643H252.675V145.878H241.811V21ZM298.085 31.9863H285.634V65.4336H296.498V76.1758H285.634V135.136H298.085V146H274.77V21H298.085V31.9863ZM334.828 0.858398H317.006V11.7227H334.828V0.858398ZM332.021 21H342.885V146H332.021V68.3633L318.837 90.458V146H307.973V21H318.837V72.2695L332.021 50.2969V21ZM389.638 21H404.164V146H393.3V56.6445L383.412 108.158H373.524L363.515 56.6445V146H352.65V21H367.177L378.407 86.918L389.638 21ZM428.212 132.572L428.09 132.694C428.008 133.671 427.846 134.647 427.602 135.624H437.245V31.498H430.775L428.212 132.572ZM447.621 21V135.624H455.556V152.348H445.058V146.122H418.812V152.348H408.314V135.624H415.15C416.534 135.299 417.388 133.956 417.714 131.596L420.399 27.958C420.562 26.0049 421.335 24.3773 422.719 23.0752C424.184 21.6917 425.893 21 427.846 21H447.621ZM506.337 63.2363C505.36 64.1315 504.424 64.986 503.529 65.7998C508.982 68.3226 511.708 72.6764 511.708 78.8613V145.878H500.844V78.8613C500.762 76.4199 499.216 75.1992 496.205 75.1992H491.566V146H480.702V75.1992H476.063C473.134 75.1992 471.588 76.4199 471.425 78.8613V145.878H460.561V78.8613C460.561 72.6764 463.327 68.3226 468.861 65.7998C467.803 64.9046 466.827 64.0501 465.932 63.2363C462.676 60.1439 461.049 55.6273 461.049 49.6865V21H472.035V49.6865C472.035 53.8369 474.924 58.1501 480.702 62.626V21H491.566V62.626C497.426 58.1501 500.355 53.8369 500.355 49.6865V21H511.22V49.6865C511.22 55.6273 509.592 60.1439 506.337 63.2363ZM544.911 31.9863H532.46V65.4336H543.324V76.1758H532.46V135.136H544.911V146H521.596V21H544.911V31.9863ZM591.786 21H606.312V146H595.448V56.6445L585.561 108.158H575.673L565.663 56.6445V146H554.799V21H569.325L580.556 86.918L591.786 21Z" fill="#E7E7E7"/>
<path d="M689.564 60.1846C689.564 64.9046 686.024 70.6826 678.944 77.5186C672.678 83.5407 669.545 88.1794 669.545 91.4346V135.258H678.7V110.6H689.442V146H658.803V91.4346C658.803 85.0869 662.994 77.8848 671.376 69.8281C676.34 65.1081 678.822 61.8936 678.822 60.1846V35.7705C678.66 33.3291 677.113 32.1084 674.184 32.1084C672.149 32.1084 670.806 32.6781 670.155 33.8174C669.748 34.5498 669.545 35.2008 669.545 35.7705V45.7803H658.803V35.7705C658.803 32.2712 659.942 29.138 662.221 26.3711C665.069 23.0345 669.057 21.3662 674.184 21.3662C679.311 21.3662 683.298 23.0345 686.146 26.3711C688.425 29.138 689.564 32.2712 689.564 35.7705V60.1846ZM719.35 131.718V68.1191L710.194 112.309V131.474C710.357 133.915 711.863 135.136 714.711 135.136C717.722 135.136 719.268 133.996 719.35 131.718ZM719.35 35.6484C719.187 33.207 717.641 31.9863 714.711 31.9863C711.781 31.9863 710.276 33.207 710.194 35.6484V99.0029L719.35 54.9355V35.6484ZM702.748 26.127C705.596 22.7904 709.584 21.1221 714.711 21.1221C719.838 21.1221 723.826 22.7904 726.674 26.127C728.952 28.8939 730.092 32.027 730.092 35.5264V131.596C730.173 135.502 728.871 138.839 726.186 141.605C723.337 144.535 719.512 146 714.711 146C709.747 146 705.84 144.332 702.992 140.995C700.632 138.31 699.411 135.217 699.33 131.718V35.5264C699.33 32.027 700.469 28.8939 702.748 26.127ZM770.863 60.1846C770.863 64.9046 767.323 70.6826 760.243 77.5186C753.977 83.5407 750.844 88.1794 750.844 91.4346V135.258H759.999V110.6H770.741V146H740.102V91.4346C740.102 85.0869 744.293 77.8848 752.675 69.8281C757.639 65.1081 760.121 61.8936 760.121 60.1846V35.7705C759.958 33.3291 758.412 32.1084 755.482 32.1084C753.448 32.1084 752.105 32.6781 751.454 33.8174C751.047 34.5498 750.844 35.2008 750.844 35.7705V45.7803H740.102V35.7705C740.102 32.2712 741.241 29.138 743.52 26.3711C746.368 23.0345 750.355 21.3662 755.482 21.3662C760.609 21.3662 764.597 23.0345 767.445 26.3711C769.724 29.138 770.863 32.2712 770.863 35.7705V60.1846ZM800.893 21H811.757V146H800.893V88.627H796.132C791.249 88.627 787.383 87.1621 784.535 84.2324C781.931 81.5469 780.629 78.2917 780.629 74.4668V21H791.493V74.5889C791.575 76.7048 793.121 77.7627 796.132 77.7627H800.893V21Z" fill="url(#paint0_linear_48_2)"/>
<defs>
<linearGradient id="paint0_linear_48_2" x1="812.788" y1="146" x2="644.807" y2="-40.5361" gradientUnits="userSpaceOnUse">
<stop offset="0.0933233" stop-color="#39DD39"/>
<stop offset="0.498019" stop-color="#4ED4EE"/>
<stop offset="0.789561" stop-color="#8244E5"/>
</linearGradient>
</defs>
</svg>
